<svg xmlns="http://www.w3.org/2000/svg" width="741.914" height="106.759" viewBox="0 0 741.914 106.759" class="style0"><style>.style0{enable-background: new 0 0 741.914 106.759;}.style1{fill: #FFFFFF;}.style2{fill: #E6E7E8;}</style><path d="M3.676 100.816h1.17c2.225 0 3.982-.938 5.27-2.109 1.874-1.873 2.692-5.267 2.692-7.611v-59.013c0-5.737 3.865-7.26 5.504-7.26 0 0 2.8 0 2.8 2.81 0 .586-.116 1.756-2.107 2.811-.586.351-.819 1.054-.819 1.6v59.248c0 4.802-1.405 8.312-3.747 10.654s-5.856 3.632-10.304 3.632c-1.522 0-2.81-.937-2.81-2.459.009-1.319.975-2.319 2.375-2.303zm11.709-92.151c-2.693 0-4.451-1.873-4.451-4.449 0-2.416 1.766-4.216 4.466-4.216 2.575 0 4.4 1.8 4.4 4.215.033 2.585-1.8 4.485-4.4 4.45zM73.114 75.056c-3.865 7.493-12.879 11.24-20.49 11.24-11.241 0-22.249-6.441-22.249-19.085 0-15.105 12.413-21.78 26.464-21.78 5.27 0 11.9 1.6 16.3 4.333v-6.324c0-2.692-.351-5.269-.701-6.205-2.345-5.972-9.954-7.61-17.332-7.61-4.566 0-9.718.937-14.87 2.224 0 0-.583.118-.937.1-1.405 0-2.457-1.289-2.457-2.693 0-1.874 2.224-2.576 2.224-2.576 4.215-1.287 10.89-2.459 15.689-2.459 9.367 0 19.4 2.7 22.7 11.241 1.052 2.7 1.1 6.3 1.1 9.134v33.839c0 .6.2 1.3.8 1.6 1.988 1.1 2.1 2.2 2.1 2.81 0 2.811-2.81 2.811-2.81 2.811-1.991.117-5.502-1.523-5.502-7.259v-3.341zm-16.626-24.256c-10.422 0-20.726 4.682-20.726 16.276 0 9.8 9 13.8 17.4 13.815 9.367 0 19.907-7.025 19.907-17.68v-8.08c-4.757-2.831-9.869-4.331-16.569-4.314zM113.986 72.947l2.342 7.729h.115l2.46-7.729 16.393-43.908c.937-2.342 3.045-4.215 5.855-4.215 1.874 0 3.5.9 3.5 2.928 0 1.405-.819 2.574-2.457 2.574-.471 0-.586-.116-.937-.116-.354 0-.471.352-.704.82l-21.544 55.267c-2.224 5.735-5.27 13.347-10.655 17.094-2.227 1.641-4.684 2.227-7.261 2.2-2.925 0-5.971-.821-8.899-1.873-1.055-.471-1.638-1.523-1.638-2.695 0-1.405 1.17-2.574 2.457-2.574.354 0 .7.1 1.1.232 2.109.8 4.6 1.5 6.8 1.523 1.52 0 3.043-.352 4.331-1.288 4.218-3.045 6.675-9.72 8.197-13.231l-21.117-54.655c-.235-.468-.351-.82-.701-.82-.354 0-.471.116-.937.1-1.641 0-2.46-1.169-2.46-2.574 0-1.991 1.638-2.928 3.512-2.928 2.81 0 4.9 1.9 5.9 4.215l16.348 43.924zM163.29 38.523c6.207-10.54 14.637-13.7 22.599-13.7 16.393 0 27.8 14.5 27.8 31.1 0 15.925-11.709 29.74-27.751 29.74-8.899 0-16.042-2.46-22.599-12.528v25.174c0 5.738-3.862 7.261-5.503 7.3 0 0-2.81 0-2.81-2.81 0-.587.118-1.759 2.109-2.811.584-.354.819-1.055.819-1.641v-66.264c0-.585-.235-1.289-.819-1.639-1.991-1.055-2.109-2.225-2.109-2.811 0-2.81 2.81-2.81 2.81-2.81 1.641 0 5.5 1.5 5.5 7.26v6.44zm22.481 41.803c13.7 0 22.481-11.477 22.481-24.355 0-12.646-8.546-25.761-22.481-25.761-13.933 0-22.481 12.998-22.481 24.939v.937c0 13.214 9.21 24.214 22.51 24.24zM228.405 58.077c.937 11.9 10 22.8 22.9 22.832 7.143 0 14.051-1.755 19.438-7.141.586-.586 1.288-.937 2.106-.937 1.641 0 2.9 1.4 2.9 2.811 0 .583-.118 1.402-.701 2-6.439 6.557-14.87 8.666-23.771 8.666-16.861 0-28.335-14.637-28.335-31.147 0-15.924 11.944-30.912 28.452-30.912 16.511 0 28.7 15.1 28.7 30.912 0 1.641-1.523 2.928-3.043 2.928h-48.646zm46.25-5.377c-1.287-12.1-10.655-23.1-23.255-23.075-12.528 0-21.66 11.123-22.947 23.066h46.202zM312.953 24.823c3.632 0 7 .9 10.7 2.224 1.172.4 1.8 1.2 1.8 2.5 0 2.108-1.874 2.928-3.632 2.459-2.692-.937-5.62-1.873-8.781-1.873-6.672 0-15.103 4.8-15.103 14.051v34.308c0 5.735-3.864 7.259-5.505 7.259 0 0-2.811 0-2.811-2.811 0-.586.118-1.756 2.109-2.81.586-.351.819-1.055.819-1.639v-46.408c0-.585-.233-1.289-.819-1.639-1.991-1.055-2.109-2.225-2.109-2.811 0-2.81 2.811-2.81 2.811-2.81 1.641 0 5.3 1.5 5.5 6.908v1.523c2.729-4.754 9.268-8.454 15.068-8.431zM356.398 24.823c3.629 0 7 .9 10.7 2.224 1.169.4 1.8 1.2 1.8 2.5 0 2.108-1.874 2.928-3.629 2.459-2.695-.937-5.621-1.873-8.784-1.873-6.675 0-15.105 4.8-15.105 14.051v34.308c0 5.735-3.862 7.259-5.502 7.259 0 0-2.81 0-2.81-2.811 0-.586.118-1.756 2.109-2.81.583-.351.819-1.055.819-1.639v-46.408c0-.585-.235-1.289-.819-1.639-1.991-1.055-2.109-2.225-2.109-2.811 0-2.81 2.81-2.81 2.81-2.81 1.641 0 5.3 1.5 5.5 6.908v1.523c2.726-4.754 9.322-8.454 15.022-8.431zM401.952 72.947l2.342 7.729h.118l2.459-7.729 16.393-43.908c.938-2.342 3.044-4.215 5.854-4.215 1.874 0 3.5.9 3.5 2.928 0 1.405-.818 2.574-2.459 2.574-.469 0-.586-.116-.937-.116s-.469.352-.704.8l-21.545 55.267c-2.224 5.735-5.267 13.347-10.654 17.094-2.224 1.641-4.684 2.227-7.258 2.227-2.929 0-5.972-.821-8.899-1.873-1.055-.471-1.641-1.523-1.641-2.695 0-1.405 1.173-2.574 2.46-2.574.351 0 .7.1 1.1.2 2.105.8 4.6 1.5 6.8 1.523 1.523 0 3.046-.352 4.333-1.288 4.216-3.045 6.675-9.72 8.195-13.231l-21.116-54.66c-.236-.468-.354-.82-.704-.82s-.469.116-.937.116c-1.641 0-2.46-1.169-2.46-2.574 0-1.991 1.641-2.928 3.515-2.928 2.81 0 4.9 1.9 5.9 4.215l16.345 43.938z" class="style1"/><path d="M508.517 83.837c-.235 1.054-1.29 1.873-2.345 1.873-1.17 0-2.224-.701-2.574-1.873l-16.275-48.944-16.275 48.944c-.353 1.172-1.407 1.873-2.577 1.873-1.054 0-2.106-.819-2.342-1.873l-19.32-52.457c-.232-.468-.468-1.171-1.052-1.171l-.937.116c-1.523 0-2.46-1.053-2.46-2.574 0-1.757 1.639-2.928 3.278-2.928 2.929 0 5 1.9 6 4.333l14.754 41.216 1.989 6.789 1.873-6.789 14.52-43.676c.353-1.171 1.522-1.874 2.577-1.874 1.052 0 2.2.7 2.6 1.874l14.52 43.676 1.874 6.789 1.991-6.789 14.752-41.216c.937-2.459 3.045-4.333 5.974-4.333 1.638 0 3.3 1.2 3.3 2.928 0 1.521-.937 2.574-2.46 2.6l-.937-.116c-.586 0-.819.703-1.055 1.171l-19.393 52.431zM532.881 55.384c0-17.096 13.937-31.147 31.03-31.147 17.097 0 30.9 14.1 30.9 31.1 0 17.094-13.815 30.912-30.912 30.912-17.082.051-30.999-13.749-30.999-30.865zm5.388.016c0 14.1 11.6 25.5 25.6 25.524s25.526-11.474 25.526-25.524-11.476-25.76-25.526-25.76-25.6 11.66-25.569 25.744zM627.621 24.823c3.629 0 7 .9 10.7 2.224 1.172.4 1.8 1.2 1.8 2.5 0 2.108-1.873 2.928-3.629 2.459-2.692-.937-5.621-1.873-8.781-1.873-6.675 0-15.105 4.8-15.105 14.051v34.308c0 5.735-3.864 7.259-5.503 7.259 0 0-2.81 0-2.81-2.811 0-.586.115-1.756 2.106-2.81.586-.351.818-1.055.818-1.639v-46.408c0-.585-.232-1.289-.818-1.639-1.991-1.055-2.106-2.225-2.106-2.811 0-2.81 2.81-2.81 2.81-2.81 1.639 0 5.3 1.5 5.5 6.908v1.523c2.723-4.754 9.297-8.454 14.997-8.431zM655.961 53.626l-.351 6.206 5.502-5.735 23.186-23.185c.584-.586.819-1.055.819-1.405 0-.703-.586-.819-.586-1.991 0-1.638 1.169-2.692 2.577-2.692 2.224 0 3.7 1.6 3.7 4.3 0 2.106-1.408 4.215-2.811 5.621l-19.32 19.436 19.202 24.941c.584.7 1.1.9 1.4.9.937 0 .937-.351 1.756-.351 1.641 0 2.5 1.3 2.5 2.574 0 2.109-2.342 3.396-4.1 3.4-2.926 0-4.448-1.638-5.735-3.396l-18.97-24.237-8.781 8.781v11.594c0 5.735-3.865 7.259-5.503 7.259 0 0-2.81 0-2.81-2.811 0-.586.117-1.756 2.105-2.81.586-.351.822-1.055.822-1.639v-71.126c0-.585-.236-1.289-.822-1.639-1.988-1.055-2.105-2.224-2.105-2.811 0-2.81 2.81-2.81 2.81-2.81 1.638 0 5.5 1.5 5.5 7.26v46.366zM720.137 86.296c-5.971 0-12.295-1.873-17.212-5.388-2.81-1.991 0-6.675 3.629-4.098 3.747 2.7 8.8 4.2 14.1 4.216 8.431 0 15.807-4.216 15.807-9.953 0-7.259-9.014-10.187-15.571-12.764-7.729-3.043-19.32-7.961-19.32-18.148 0-9.132 9.601-15.924 20.14-15.924 6.321 0 12.2 2.1 16.4 5.5 3.161 2.694-.586 6.557-3.278 4.332-3.514-2.927-8.312-4.448-13.114-4.448-7.962 0-14.755 4.684-14.755 10.7 0 7.5 12.4 11.5 17.6 13.464 7.376 2.9 17.4 7.7 17.4 17.33-.049 11.085-12.663 15.185-21.863 15.181z" class="style2"/></svg>